<?xml version="1.0" encoding="UTF-8" standalone="no"?>
<!-- Created with Inkscape (http://www.inkscape.org/) -->

<svg
   xmlns:dc="http://purl.org/dc/elements/1.1/"
   xmlns:cc="http://creativecommons.org/ns#"
   xmlns:rdf="http://www.w3.org/1999/02/22-rdf-syntax-ns#"
   xmlns:svg="http://www.w3.org/2000/svg"
   xmlns="http://www.w3.org/2000/svg"
   xmlns:sodipodi="http://sodipodi.sourceforge.net/DTD/sodipodi-0.dtd"
   xmlns:inkscape="http://www.inkscape.org/namespaces/inkscape"
   width="153.44423mm"
   height="48.231777mm"
   viewBox="0 0 543.70002 170.9"
   id="svg8169"
   version="1.1"
   inkscape:version="0.91 r13725"
   sodipodi:docname="car.svg"
   inkscape:export-filename="C:\Users\MK\Dysk Google\Marek\Nauka\Javascript\Car expense\images\car.png"
   inkscape:export-xdpi="300"
   inkscape:export-ydpi="300">
  <defs
     id="defs8171" />
  <sodipodi:namedview
     id="base"
     pagecolor="#ffffff"
     bordercolor="#666666"
     borderopacity="1.0"
     inkscape:pageopacity="0"
     inkscape:pageshadow="2"
     inkscape:zoom="1.979899"
     inkscape:cx="307.83558"
     inkscape:cy="43.734822"
     inkscape:document-units="px"
     inkscape:current-layer="layer1"
     showgrid="false"
     fit-margin-top="0"
     fit-margin-left="0"
     fit-margin-right="0"
     fit-margin-bottom="0"
     inkscape:showpageshadow="false"
     showborder="true"
     inkscape:window-width="1920"
     inkscape:window-height="1017"
     inkscape:window-x="-8"
     inkscape:window-y="-8"
     inkscape:window-maximized="1"
     units="px"
     showguides="false">
    <inkscape:grid
       type="xygrid"
       id="grid12695" />
  </sodipodi:namedview>
  <metadata
     id="metadata8174">
    <rdf:RDF>
      <cc:Work
         rdf:about="">
        <dc:format>image/svg+xml</dc:format>
        <dc:type
           rdf:resource="http://purl.org/dc/dcmitype/StillImage" />
        <dc:title></dc:title>
      </cc:Work>
    </rdf:RDF>
  </metadata>
  <g
     inkscape:label="Layer 1"
     inkscape:groupmode="layer"
     id="layer1"
     transform="translate(-79.57861,-66.9122)">
    <g
       transform="translate(-680.92139,-19.8878)"
       id="sport_car">
      <rect
         style="fill:#231f20"
         x="1063.3"
         y="155.8"
         width="11.6"
         height="7.6999998"
         id="rect71" />
    </g>
    <g
       id="g12716">
      <rect
         y="67.812195"
         x="79.578613"
         height="170"
         width="545"
         id="rect12706"
         style="fill:#ff0000;fill-opacity:1;stroke:none;stroke-width:0.75590551;stroke-miterlimit:4;stroke-dasharray:none;stroke-opacity:1;opacity:0" />
      <path
         id="path65"
         d="m 841.5,186.4 c -19,0 -34.5,14.9 -35.5,33.7 l 0,3.9 c 1,18.8 16.5,33.7 35.5,33.7 19,0 34.5,-14.9 35.5,-33.7 l 0,-4 c -1,-18.7 -16.4,-33.6 -35.5,-33.6 z m 23,37.5 c -1,11.8 -10.9,21.1 -23,21.1 -12.1,0 -22,-9.3 -23,-21.1 l 0,-3.9 c 1,-11.8 10.9,-21.1 23,-21.1 12.1,0 22,9.3 23,21.1 l 0,3.9 z"
         inkscape:connector-curvature="0"
         style="fill:#231f20"
         transform="translate(-680.92139,-19.8878)" />
      <circle
         id="circle67"
         r="14.4"
         cy="222"
         cx="841.5"
         style="fill:#231f20"
         transform="translate(-680.92139,-19.8878)" />
      <path
         id="path73"
         d="m 1189.2,186.4 c -19,0 -34.5,14.9 -35.5,33.7 l 0,3.9 c 1,18.8 16.5,33.7 35.5,33.7 19,0 34.5,-14.9 35.5,-33.7 l 0,-4 c -1,-18.7 -16.5,-33.6 -35.5,-33.6 z m 23,37.5 c -1,11.8 -10.9,21.1 -23,21.1 -12.1,0 -22,-9.3 -23,-21.1 l 0,-3.9 c 1,-11.8 10.9,-21.1 23,-21.1 12.1,0 22,9.3 23,21.1 l 0,3.9 z"
         inkscape:connector-curvature="0"
         style="fill:#231f20"
         transform="translate(-680.92139,-19.8878)" />
      <circle
         id="circle75"
         r="14.4"
         cy="222"
         cx="1189.2"
         style="fill:#231f20"
         transform="translate(-680.92139,-19.8878)" />
      <path
         id="path69"
         d="m 622.77861,164.0122 c -0.1,-2 -1.8,-3.6 -3.9,-3.6 0,0 -2.4,0 -5.1,0 l -3.2,0 c 0,-11.3 0,-37.7 0,-37.7 0,-1.8 -1.3,-3.4 -3.1,-3.8 0,0 -49.1,-9.8 -50.1,-10 -69.8,-36.9 -123.4,-42 -170.8,-42 -52.2,0 -90.3,15.2 -91.9,15.8 -0.1,0 -0.2,0.1 -0.3,0.2 0,0 -64.8,33.4 -66.1,34.1 -97.2,5.5 -133.9,28.6 -135.4,29.6 -0.5,0.3 -0.9,0.7 -1.2,1.2 l -12.1,21.3 0,42.9 c 0,1.6 1,3.1 2.6,3.7 l 31,10.8 c 1.2,0.4 2.5,0.2 3.5,-0.5 1,-0.7 1.6,-1.9 1.6,-3.2 l 0,-20.7 c 0,-22.9 18.6,-41.5 41.5,-41.5 22.9,0 41.5,18.6 41.5,41.5 l 0,20.6 c 0,2.1 1.7,3.9 3.9,3.9 l 50.7,0 3.8,0 131.7,0 2.3,0 68.5,0 c 2.1,0 3.9,-1.7 3.9,-3.9 l 0,-20.6 c 0,-22.9 18.6,-41.5 41.5,-41.5 22.9,0 41.5,18.6 41.5,41.5 l 0,13.2 c 0,1.1 0.5,2.1 1.3,2.9 0.8,0.7 1.9,1.1 3,1 1.6,-0.2 39.8,-4.1 54.8,-8.9 13.3,-4.2 15.1,-26.7 15.1,-38.8 -0.3,-3.9 -0.5,-6.6 -0.5,-7.5 z m -22.4,-3.6 c -1.6,-2.6 -9.7,-15.8 -14.1,-23 l 16.6,0 0,23 -2.5,0 z m -507.9,0.4 16.2,0 c -1.6,3.7 -2.7,6.2 -3.6,8.2 l -16.4,0 c 0.8,-1.4 2.8,-6.7 3.8,-8.2 z m 294.5,58 -127.5,0 0,-94.2 145.3,0 -17.8,94.2 z m 27,-102 5.6,-29.5 c 21.5,1.6 45.7,5.4 72.5,14.1 6.2,2.5 5.6,8.1 5.3,9.7 -0.6,2.8 -2.5,5.7 -5.1,5.7 0,0 -12,0 -30.4,0 l -47.9,0 0,0 z m -7.8,0 -134.6,0 c 13.5,-7 31.5,-16.3 31.8,-16.4 4.5,-1.7 39.1,-14.2 84.1,-14.2 7.6,0 15.7,0.1 24.3,0.6 l -5.6,30 z m 199.4,86 c -11.5,3.6 -38.5,7 -49,8.1 0,-3.9 0,-8.8 0,-8.8 0,-27.2 -22.1,-49.2 -49.2,-49.2 -27.1,0 -49.2,22.1 -49.2,49.2 0,0 0,11.6 0,16.7 l -63.2,0 17.7,-94.2 79.6,0 c 6.1,0 11.3,-4.9 12.7,-11.9 1.2,-6.1 -0.7,-14.6 -10.2,-18.5 -42.3,-13.8 -77.9,-15.7 -107.2,-15.7 -46.9,0 -83.1,13.3 -87.1,14.8 -0.1,0.1 -0.3,0.1 -0.4,0.2 l -46.2,23.8 c 0,0 -0.1,0 -0.1,0.1 -0.3,0.2 -0.7,0.4 -0.9,0.7 0,0 -0.1,0.1 -0.1,0.1 -0.2,0.3 -0.4,0.6 -0.6,0.9 0,0 0,0.1 -0.1,0.1 -0.2,0.3 -0.2,0.7 -0.3,1.1 0,0.1 0,0.2 0,0.2 0,0.1 0,0.2 0,0.3 l 0,98.1 -42.8,0 c 0,-5.1 0,-16.7 0,-16.7 0,-27.2 -22.1,-49.2 -49.2,-49.2 -27.1,0 -49.2,22.1 -49.2,49.2 0,0 0,9.2 0,15.1 -6.4,-2.2 -19.6,-6.9 -23.2,-8.1 l 0,-32.4 20.4,0 c 1.5,0 2.9,-0.9 3.6,-2.3 l 7,-16 c 0.5,-1.2 0.4,-2.6 -0.3,-3.7 -0.7,-1.1 -1.9,-1.8 -3.2,-1.8 l -17.2,0 c 0.1,-0.2 0.2,-0.3 0.3,-0.4 5.2,-3 43.2,-23.1 131.8,-28 0.5,0 1.1,-0.2 1.6,-0.4 0,0 66.3,-34.2 66.7,-34.3 1.7,-0.7 39.2,-15.2 88.9,-15.2 46.6,0 99.1,5 167.7,41.4 0.3,0.2 0.7,0.3 1.1,0.4 0,0 42,8.4 47.5,9.5 l 0,3.7 -23.5,0 c -1.4,0 -2.7,0.8 -3.4,2 -0.7,1.2 -0.7,2.7 0.1,3.9 l 18.9,30.7 c 0.7,1.1 2,1.8 3.3,1.8 l 8.5,0 c 0,0 3.7,0 7.1,0 l 1.3,0 c 0,0.9 0.1,1.6 0.1,2.6 -0.5,12.2 -2.6,29.7 -10.1,32.1 z"
         inkscape:connector-curvature="0"
         style="fill:#231f20" />
    </g>
    <rect
       style="fill:none;fill-opacity:1;stroke:none;stroke-width:0.75590551;stroke-miterlimit:4;stroke-dasharray:none;stroke-opacity:1"
       id="rect12697"
       width="545"
       height="170"
       x="79.578613"
       y="67.812195" />
    <g
       id="g12738"
       style="fill:#f5f5f5;fill-opacity:1">
      <path
         transform="translate(79.57861,66.9122)"
         inkscape:connector-curvature="0"
         id="path12726"
         d="m 0.04209659,51.235378 0,-50.33926999 140.03239341,0.0623404 c 81.07666,0.0360942 138.65021,0.24591604 136.7494,0.49837134 -23.13618,3.0728314 -36.9736,5.9873304 -52.98613,11.1601742 -7.19316,2.32375 -10.32602,3.826243 -41.41625,19.862865 l -33.63445,17.348954 -10.85914,0.803996 C 93.709108,53.906706 55.78041,61.387553 28.62602,72.190902 22.096335,74.788731 13.438448,79.051666 12.518902,80.12166 12.127042,80.577628 9.2415861,85.496384 6.1067762,91.052223 2.9719664,96.608062 0.32499128,101.24845 0.22460929,101.3642 0.1242273,101.47994 0.04209659,78.921973 0.04209659,51.235378 Z"
         style="fill:#f5f5f5;fill-opacity:1;stroke:none;stroke-width:0.75590551;stroke-miterlimit:4;stroke-dasharray:none;stroke-opacity:1" />
      <path
         transform="translate(79.57861,66.9122)"
         inkscape:connector-curvature="0"
         id="path12728"
         d="m 0.05745531,158.60617 c 0.01024496,-8.00169 0.17857153,-11.71591 0.50556761,-11.15564 0.56822318,0.97358 2.66024338,1.79112 20.41406908,7.97759 13.09303,4.56239 14.124693,4.84258 15.660406,4.25327 2.027519,-0.77803 2.295472,-2.61995 2.295472,-15.77918 0,-14.02658 0.458508,-17.7178 2.984409,-24.02593 3.81154,-9.51888 10.713486,-16.94371 19.996561,-21.511518 6.821525,-3.35658 10.615456,-4.225907 18.435284,-4.224205 5.010094,0.001 7.147607,0.235967 10.354064,1.137725 14.041802,3.948989 24.503832,14.056588 29.084112,28.098818 1.06395,3.26186 1.17537,4.71721 1.43938,18.80096 0.28174,15.02931 0.30395,15.28321 1.43661,16.41498 l 1.15046,1.14956 130.28161,0 130.28162,0 1.15045,-1.14956 c 1.13266,-1.13177 1.15488,-1.38567 1.43661,-16.41498 0.26402,-14.08375 0.37544,-15.5391 1.43939,-18.80096 4.57963,-14.04026 15.02521,-24.133621 29.08411,-28.103419 5.56861,-1.572404 15.35781,-1.582162 21.09888,-0.02101 12.53154,3.407629 23.43965,13.230581 27.93942,25.159951 2.1169,5.61214 2.73201,10.04794 2.73201,19.70153 0,9.72791 0.41883,11.50535 2.85514,12.11683 3.57411,0.89704 45.216,-5.29054 54.9217,-8.16083 5.3082,-1.56981 8.72469,-4.49479 11.36442,-9.72949 3.6266,-7.19172 5.24784,-15.94212 5.26072,-28.39404 0.0126,-12.130241 -0.2589,-12.580219 -7.60564,-12.605477 l -4.67195,-0.01608 0,-18.965442 c 0,-21.04414 -0.05,-21.40134 -3.14794,-22.38636 -0.90768,-0.288615 -12.62095,-2.694997 -26.02955,-5.34751 l -24.37926,-4.822751 -9.66225,-4.836219 C 429.90554,17.817735 391.70388,6.201413 353.84803,2.2059012 c -4.16688,-0.439795 -8.258,-0.8803601 -9.09138,-0.9790336 -0.83337,-0.098674 43.88482,-0.2134608 99.37376,-0.25508295 l 100.88899,-0.0756766 0,84.85281399 0,84.852818 -54.67451,-0.0452 c -47.2502,-0.039 -54.33165,-0.13916 -52.14962,-0.73736 1.38869,-0.38072 4.45702,-1.64461 6.81853,-2.80866 3.42544,-1.68849 5.16931,-2.99473 8.62421,-6.45997 7.33608,-7.35802 10.04694,-13.54112 10.42981,-23.78895 0.28679,-7.67635 -0.46983,-11.47643 -3.51973,-17.67767 -1.6919,-3.44008 -3.01847,-5.20939 -6.67606,-8.90419 -3.92852,-3.9685 -5.23321,-4.93243 -9.36281,-6.91738 -6.23368,-2.99632 -11.68736,-4.123659 -17.95664,-3.711845 -9.03339,0.593385 -16.49419,3.989045 -22.95086,10.445725 -4.37537,4.37536 -7.04503,8.66723 -8.95158,14.39099 -1.19183,3.57803 -1.34591,4.8212 -1.34591,10.85914 0,6.03793 0.15408,7.2811 1.34591,10.85914 1.90934,5.73212 4.57945,10.02028 8.96084,14.39099 4.42958,4.41878 8.19944,6.7877 13.85381,8.70549 l 4.06346,1.3782 -166.67517,0 -166.675174,0 4.06346,-1.3782 c 5.654369,-1.91779 9.424224,-4.28671 13.853804,-8.70549 4.38139,-4.37071 7.0515,-8.65887 8.96084,-14.39099 1.19183,-3.57804 1.34592,-4.82121 1.34592,-10.85914 0,-6.03794 -0.15409,-7.28111 -1.34592,-10.85914 -1.90835,-5.72914 -4.57952,-10.02633 -8.94789,-14.39469 -11.071142,-11.071153 -26.57415,-13.62151 -40.911184,-6.73019 -4.1296,1.98495 -5.434293,2.94888 -9.362816,6.91738 -7.292952,7.36715 -10.335159,14.74565 -10.335159,25.06663 0,6.41366 0.926188,10.4737 3.687027,16.16244 1.688404,3.47897 2.949191,5.16594 6.648132,8.89536 3.723094,3.75378 5.356137,4.99125 8.858235,6.7125 2.361504,1.16067 5.429842,2.42179 6.818529,2.80251 2.20283,0.60391 -2.194182,0.69796 -34.47195,0.73736 l -36.99683741,0.0452 0.01535872,-11.99557 z"
         style="fill:#f5f5f5;fill-opacity:1;stroke:none;stroke-width:0.75590551;stroke-miterlimit:4;stroke-dasharray:none;stroke-opacity:1" />
    </g>
    <path
       style="fill:#ffffff;fill-opacity:1;stroke:none;stroke-width:0.75590551;stroke-miterlimit:4;stroke-dasharray:none;stroke-opacity:1"
       d="m 514.20467,82.339657 c -3.69005,-6.041975 -6.80287,-11.155872 -6.91739,-11.364216 -0.11452,-0.208344 3.44174,-0.378807 7.90281,-0.378807 l 8.11103,0 0,11.364216 0,11.364216 -1.19365,0 c -1.01257,0 -2.21138,-1.666424 -7.9028,-10.985409 z"
       id="path12730"
       inkscape:connector-curvature="0"
       transform="translate(79.57861,66.9122)" />
    <path
       style="fill:#ffffff;fill-opacity:1;stroke:none;stroke-width:0.75590551;stroke-miterlimit:4;stroke-dasharray:none;stroke-opacity:1"
       d="m 9.6385458,101.6761 c 0,-0.14351 0.7122832,-1.853914 1.5828522,-3.800902 l 1.582852,-3.539979 7.983714,0 7.983713,0 -1.66462,3.661802 -1.664621,3.661799 -7.901945,0.1391 c -4.34607,0.0765 -7.9019452,0.0217 -7.9019452,-0.12182 z"
       id="path12732"
       inkscape:connector-curvature="0"
       transform="translate(79.57861,66.9122)" />
    <path
       style="fill:#f5f5f5;fill-opacity:1;stroke:none;stroke-width:0.75590551;stroke-miterlimit:4;stroke-dasharray:none;stroke-opacity:1"
       d="m 193.02332,49.691011 c 0.11575,-0.108623 7.25627,-3.835526 15.86782,-8.282007 16.75441,-8.650961 20.20682,-10.012542 34.93222,-13.776792 14.99831,-3.834011 31.73711,-6.462501 48.20753,-7.570021 8.73395,-0.587296 38.97217,-0.510619 39.58316,0.100373 0.23971,0.239709 -3.91232,23.769251 -5.04491,28.589521 l -0.26701,1.136421 -66.74463,0 c -36.70954,0 -66.64992,-0.08887 -66.53418,-0.197495 z"
       id="path12734"
       inkscape:connector-curvature="0"
       transform="translate(79.57861,66.9122)" />
    <path
       style="fill:#f5f5f5;fill-opacity:1;stroke:none;stroke-width:0.75590551;stroke-miterlimit:4;stroke-dasharray:none;stroke-opacity:1"
       d="m 337.34235,35.367564 c 1.5166,-7.986519 2.81433,-14.590692 2.88385,-14.675941 0.24956,-0.306015 16.31338,1.492834 24.48097,2.741411 15.1009,2.308473 29.64746,5.62353 42.94349,9.786513 6.63966,2.078872 8.42692,3.242939 9.55231,6.221507 1.28757,3.407838 -0.24565,8.400867 -3.00902,9.799075 -0.97144,0.491529 -10.03147,0.635155 -40.43053,0.640932 l -39.17853,0.0074 2.75746,-14.520942 z"
       id="path12736"
       inkscape:connector-curvature="0"
       transform="translate(79.57861,66.9122)" />
    <path
       style="opacity:0;fill:#f5f5f5;fill-opacity:1;stroke:none;stroke-width:0.75590551;stroke-miterlimit:4;stroke-dasharray:none;stroke-opacity:1"
       d="m 195.60763,48.338409 c 1.52786,-0.842488 8.68731,-4.565855 15.9099,-8.274149 14.31075,-7.347563 19.24659,-9.202174 34.34131,-12.903533 15.0382,-3.687498 30.52437,-6.036946 46.87753,-7.111913 8.21364,-0.53992 38.37649,-0.488453 38.93137,0.06643 0.12498,0.12498 -1.00163,6.818271 -2.50358,14.873981 -1.50195,8.05571 -2.73328,14.703566 -2.7363,14.773014 -0.003,0.06945 -30.06383,0.122152 -66.80181,0.11712 l -66.79634,-0.0091 2.77792,-1.531798 z"
       id="path12742"
       inkscape:connector-curvature="0"
       transform="translate(79.57861,66.9122)" />
    <path
       style="opacity:0;fill:#f5f5f5;fill-opacity:1;stroke:none;stroke-width:0.75590551;stroke-miterlimit:4;stroke-dasharray:none;stroke-opacity:1"
       d="m 195.60763,48.338409 c 1.52786,-0.842488 8.68731,-4.565855 15.9099,-8.274149 14.31075,-7.347563 19.24659,-9.202174 34.34131,-12.903533 15.0382,-3.687498 30.52437,-6.036946 46.87753,-7.111913 8.21364,-0.53992 38.37649,-0.488453 38.93137,0.06643 0.12498,0.12498 -1.00163,6.818271 -2.50358,14.873981 -1.50195,8.05571 -2.73328,14.703566 -2.7363,14.773014 -0.003,0.06945 -30.06383,0.122152 -66.80181,0.11712 l -66.79634,-0.0091 2.77792,-1.531798 z"
       id="path12744"
       inkscape:connector-curvature="0"
       transform="translate(79.57861,66.9122)" />
    <path
       style="opacity:0;fill:#f5f5f5;fill-opacity:1;stroke:none;stroke-width:0.75590551;stroke-miterlimit:4;stroke-dasharray:none;stroke-opacity:1"
       d="m 334.69905,49.004623 c 0.14493,-0.486136 1.42758,-7.018886 2.85033,-14.517223 1.42274,-7.498337 2.6545,-13.701032 2.73723,-13.783766 0.61715,-0.617149 26.5934,2.850165 37.40102,4.992294 13.38477,2.652937 31.75491,7.589431 35.69161,9.591187 3.99211,2.029934 5.46333,6.658045 3.44312,10.831238 -0.81056,1.674403 -1.63699,2.572004 -2.82514,3.068445 -1.38408,0.578305 -8.52769,0.701708 -40.62056,0.701708 -36.85046,0 -38.92698,-0.04745 -38.67761,-0.883883 z"
       id="path12746"
       inkscape:connector-curvature="0"
       transform="translate(79.57861,66.9122)" />
  </g>
</svg>
